<?xml version="1.0" encoding="UTF-8"?>
<svg id="Ebene_1" data-name="Ebene 1" xmlns="http://www.w3.org/2000/svg" viewBox="0 0 283.46 79.37">
  <defs>
    <style>
      .cls-1 {
        fill: #878585;
      }

      .cls-2 {
        fill: #014587;
      }
    </style>
  </defs>
  <path class="cls-2" d="M257.88,5.63c0-3,2.44-5.45,5.45-5.45s5.45,2.45,5.45,5.45-2.45,5.45-5.45,5.45-5.45-2.45-5.45-5.45ZM267.05,5.63c0-2.23-1.68-3.91-3.73-3.91s-3.73,1.68-3.73,3.91,1.67,3.91,3.73,3.91,3.73-1.68,3.73-3.91ZM261.17,2.65h2.41c1.48,0,2.28.41,2.28,1.74,0,1.12-.71,1.58-1.66,1.63l1.42,2.57h-1.45l-1.3-2.47h-.26v2.47h-1.45V2.65ZM262.62,4.95h.88c.54,0,.92-.17.92-.65,0-.45-.59-.51-1.04-.51h-.75v1.16ZM9.6,1.45h33.34l-1.92,9.17-24.97,25.53h19.77l-1.61,8.55H0l1.98-9.17L26.52,10H7.87l1.74-8.55ZM62.15,1.45h14.5l7.06,43.25h-11.65l-1.18-9.23h-16.79l-5.14,9.23h-12.52L62.15,1.45ZM67.91,10.37h-.12l-9.17,16.92h11.15l-1.86-16.92ZM123.31,11.24c-2.23-1.05-5.27-1.98-9.54-1.98-4.59,0-8.3.68-8.3,4.15,0,6.13,16.79,3.84,16.79,16.98,0,11.96-11.09,15.06-21.13,15.06-4.46,0-9.6-1.05-13.38-2.23l2.73-8.8c2.29,1.49,6.88,2.48,10.66,2.48s9.23-.68,9.23-5.14c0-6.94-16.79-4.34-16.79-16.54,0-11.15,9.79-14.5,19.27-14.5,5.33,0,10.35.56,13.26,1.92l-2.79,8.61ZM167.99,11.86c-3.66-2.11-7.13-2.6-10.78-2.6-11.59,0-16.24,8.18-16.24,16.36,0,7.68,4.9,11.28,11.84,11.28,4.15,0,7.93-.87,10.97-2.42l-1.24,9.29c-2.79.93-7.62,1.67-11.53,1.67-13.94,0-21.94-8.24-21.94-20.14,0-14.38,10.1-24.6,26.34-24.6,8.3,0,12.95,1.43,15.31,2.29l-2.73,8.86ZM176.3,1.45h11.59l-3.41,16.54h13.69l3.41-16.54h11.59l-8.99,43.25h-11.59l3.84-18.53h-13.69l-3.84,18.53h-11.59L176.3,1.45ZM221.35,1.45h30.43l-1.67,8.18h-19.02l-1.98,8.92h18.03l-1.8,8.18h-17.97l-2.11,9.79h19.77l-1.67,8.18h-31.29L221.35,1.45Z"/>
  <path class="cls-1" d="M145.41,49.12h5.63l-1.98,9.43h.06c1.14-1.52,3-2.72,5.6-2.72,3.25,0,5.01,2.41,5.01,5.57,0,1.08-.09,1.7-.43,3.4l-1.48,7.52h-5.75l1.55-7.55c.15-.8.37-1.61.37-2.44,0-.96-.62-1.92-2.17-1.86-2.35,0-3.74,2.04-4.15,4.42l-1.58,7.42h-5.57l4.89-23.2ZM172.29,70.06l-.06-.06v.06c-1.18,1.86-3.25,2.63-5.41,2.63-3.46,0-5.38-1.55-5.38-4.67,0-3.96,3.96-5.91,8.88-5.91,1.11,0,2.23.09,3,.15.06-.22.06-.43.06-.65,0-1.14-1.14-2.07-2.97-2.07-2.01,0-3.37.31-5.23,1.27l.56-4.05c1.64-.56,3.4-.93,5.91-.93,3.84,0,6.99,1.52,6.99,5.48,0,2.54-1.42,6.16-2.04,11.01h-4.55l.25-2.26ZM168.58,68.98c2.38,0,3.8-1.64,4.21-3.8-.46-.09-1.14-.09-1.48-.09-2.66-.09-4.61.87-4.61,2.29,0,.74.71,1.61,1.89,1.61ZM182.56,60.41c.28-1.39.53-2.75.68-4.21h5.17l-.43,2.63h.06c1.61-1.79,3.28-3,6.22-3,3.25,0,5.01,2.41,5.01,5.57,0,1.08-.09,1.7-.43,3.4l-1.48,7.52h-5.75l1.55-7.55c.15-.8.37-1.61.37-2.44,0-.96-.62-1.92-2.17-1.86-2.35,0-3.74,2.04-4.15,4.42l-1.58,7.42h-5.57l2.51-11.91ZM213.37,69.75h-.06c-1.42,1.79-2.75,2.94-5.85,2.94-3.46,0-6-3.03-6-6.65,0-5.29,2.66-10.21,8.17-10.21,2.81,0,4.76,1.24,5.6,2.97h.06l1.95-9.68h5.48l-4.33,20.79c-.19.96-.28,1.76-.34,2.41h-5.1l.43-2.57ZM214.08,63.38c0-1.61-.8-3.28-2.66-3.28-2.63,0-4.21,2.51-4.21,5.01,0,1.98.9,3.31,2.66,3.31,2.63,0,4.21-2.91,4.21-5.04ZM226.73,49.12h5.63l-4.83,23.2h-5.63l4.83-23.2ZM235.55,56.2h5.63l-3.34,16.12h-5.63l3.34-16.12ZM236.97,49.49h5.63l-.87,4.08h-5.63l.87-4.08ZM244.43,60.41c.28-1.39.53-2.75.68-4.21h5.17l-.43,2.63h.06c1.61-1.79,3.28-3,6.22-3,3.25,0,5.01,2.41,5.01,5.57,0,1.08-.09,1.7-.43,3.4l-1.48,7.52h-5.75l1.55-7.55c.15-.8.37-1.61.37-2.44,0-.96-.62-1.92-2.17-1.86-2.35,0-3.74,2.04-4.15,4.42l-1.58,7.42h-5.57l2.51-11.91ZM264.41,73.83c1.45.84,2.94,1.24,4.67,1.27,3.9.06,5.29-1.42,6.16-5.54l-.06-.06c-1.24,1.79-3.06,2.81-5.26,2.81-4.42,0-6.59-3.06-6.59-7.33,0-4.98,3.43-9.16,8.63-9.16,2.44,0,4.64.99,5.57,3.31h.06l.71-2.94h5.17c-.22.87-.62,2.13-1.02,3.87l-2.47,10.98c-1.42,6.25-3.65,8.14-10.33,8.14-2.78,0-4.61-.49-6.31-1.02l1.08-4.33ZM273.1,60.1c-2.78,0-4.02,2.72-4.02,4.98,0,1.67,1.14,2.97,2.91,2.97,2.85,0,4.08-2.94,4.08-5.04,0-1.7-1.02-2.91-2.97-2.91Z"/>
</svg>